<?xml version="1.0" encoding="UTF-8"?>
<!DOCTYPE svg PUBLIC "-//W3C//DTD SVG 1.1//EN" "http://www.w3.org/Graphics/SVG/1.1/DTD/svg11.dtd">
<svg xmlns="http://www.w3.org/2000/svg" version="1.1" width="512px" height="512px" style="shape-rendering:geometricPrecision; text-rendering:geometricPrecision; image-rendering:optimizeQuality; fill-rule:evenodd; clip-rule:evenodd" xmlns:xlink="http://www.w3.org/1999/xlink">
<g><path style="opacity:1" fill="#8068f8" d="M 232.5,-0.5 C 247.833,-0.5 263.167,-0.5 278.5,-0.5C 368.144,10.3879 435.644,54.7213 481,132.5C 497.695,163.971 507.861,197.304 511.5,232.5C 511.5,247.833 511.5,263.167 511.5,278.5C 500.612,368.144 456.279,435.644 378.5,481C 347.029,497.695 313.696,507.861 278.5,511.5C 263.167,511.5 247.833,511.5 232.5,511.5C 142.856,500.612 75.3562,456.279 30,378.5C 13.3053,347.029 3.1386,313.696 -0.5,278.5C -0.5,263.167 -0.5,247.833 -0.5,232.5C 10.3875,142.857 54.7208,75.3573 132.5,30C 163.971,13.3053 197.304,3.1386 232.5,-0.5 Z M 183.5,360.5 C 183.167,359.5 182.5,358.833 181.5,358.5C 171.784,346.554 165.618,332.888 163,317.5C 156.559,278.94 155.892,240.273 161,201.5C 166.88,156.618 192.38,132.785 237.5,130C 258.158,128.352 278.825,128.352 299.5,130C 311.637,130.684 323.637,132.35 335.5,135C 337.587,135.792 339.421,136.959 341,138.5C 342.109,145.257 342.609,152.091 342.5,159C 342.333,164.833 342.167,170.667 342,176.5C 341.626,177.416 341.126,178.25 340.5,179C 311.5,179.333 282.5,179.667 253.5,180C 234.399,181.434 223.232,191.6 220,210.5C 215.333,240.5 215.333,270.5 220,300.5C 222.197,316.36 231.03,326.194 246.5,330C 263.795,331.396 281.129,331.896 298.5,331.5C 298.333,308.498 298.5,285.498 299,262.5C 299.309,261.234 299.809,260.067 300.5,259C 317.5,258.333 334.5,258.333 351.5,259C 352.126,259.75 352.626,260.584 353,261.5C 353.667,292.5 353.667,323.5 353,354.5C 350.227,362.606 344.727,368.106 336.5,371C 312.815,378.789 288.481,382.622 263.5,382.5C 246.232,382.383 229.232,380.216 212.5,376C 201.629,372.901 191.963,367.734 183.5,360.5 Z"/></g>
<g><path style="opacity:0.201" fill="#000000" d="M 181.5,358.5 C 182.5,358.833 183.167,359.5 183.5,360.5C 182.167,360.5 181.5,359.833 181.5,358.5 Z"/></g>
</svg>
